<?xml version="1.0" standalone="no"?>
<!DOCTYPE svg PUBLIC "-//W3C//DTD SVG 20010904//EN"
 "http://www.w3.org/TR/2001/REC-SVG-20010904/DTD/svg10.dtd">
<svg version="1.0" xmlns="http://www.w3.org/2000/svg"
 width="170.000000pt" height="75.000000pt" viewBox="0 0 170.000000 75.000000"
 preserveAspectRatio="xMidYMid meet">
<metadata>
Created by potrace 1.16, written by Peter Selinger 2001-2019
</metadata>
<g transform="translate(0.000000,75.000000) scale(0.100000,-0.100000)"
fill="#000000" stroke="none">
<path d="M740 420 c-18 -4 -26 -14 -28 -33 -2 -19 -9 -27 -23 -27 -14 0 -19
-7 -19 -25 0 -18 5 -25 20 -25 18 0 20 -7 20 -80 0 -67 3 -83 20 -100 34 -34
100 -24 100 16 0 17 -4 22 -15 18 -30 -12 -45 15 -45 82 l0 64 30 0 c25 0 30
4 30 25 0 21 -5 25 -29 25 -26 0 -30 4 -33 33 -3 30 -6 32 -28 27z"/>
<path d="M260 235 l0 -125 30 0 30 0 0 73 c0 85 18 122 56 114 21 -4 24 -1 24
29 0 26 -4 34 -17 34 -23 0 -37 -10 -51 -35 -11 -19 -11 -18 -12 8 0 23 -4 27
-30 27 l-30 0 0 -125z"/>
<path d="M479 346 c-62 -36 -77 -152 -26 -203 48 -49 167 -40 167 12 0 22 -3
24 -19 15 -31 -16 -79 -12 -101 10 -34 34 -24 40 60 40 l80 0 0 39 c0 57 -33
92 -90 97 -28 3 -55 -1 -71 -10z"/>
<path d="M870 270 c0 -103 15 -146 55 -156 31 -8 69 1 89 22 15 14 16 14 16
-5 0 -17 6 -21 35 -21 l35 0 0 125 0 125 -35 0 -35 0 0 -84 c0 -89 -11 -116
-50 -116 -34 0 -50 38 -50 122 l0 78 -30 0 -30 0 0 -90z"/>
<path d="M1170 235 l0 -125 30 0 30 0 0 73 c0 85 18 122 56 114 21 -4 24 -1
24 29 0 26 -4 34 -17 34 -23 0 -37 -10 -51 -35 -11 -19 -11 -18 -12 8 0 23 -4
27 -30 27 l-30 0 0 -125z"/>
<path d="M1350 235 l0 -125 30 0 30 0 0 84 c0 89 11 116 50 116 34 0 50 -38
50 -122 l0 -78 31 0 31 0 -4 106 c-3 97 -5 107 -27 125 -30 25 -72 24 -105 -2
l-26 -20 0 20 c0 17 -6 21 -30 21 l-30 0 0 -125z"/>
</g>
</svg>
